<svg id="Component_1_1" data-name="Component 1 – 1" xmlns="http://www.w3.org/2000/svg" width="55" height="55" viewBox="0 0 55 55">
  <circle id="Ellipse_2" data-name="Ellipse 2" cx="27.5" cy="27.5" r="27.5" fill="#ff6a9e"/>
  <path id="Icon_zocial-dribbble" data-name="Icon zocial-dribbble" d="M0,13.188a12.919,12.919,0,0,1,1.767-6.62,13.094,13.094,0,0,1,4.8-4.8A12.919,12.919,0,0,1,13.188,0a12.919,12.919,0,0,1,6.62,1.767,13.094,13.094,0,0,1,4.8,4.8,12.919,12.919,0,0,1,1.767,6.62,12.919,12.919,0,0,1-1.767,6.62,13.094,13.094,0,0,1-4.8,4.8,12.919,12.919,0,0,1-6.62,1.767,12.919,12.919,0,0,1-6.62-1.767,13.094,13.094,0,0,1-4.8-4.8A12.919,12.919,0,0,1,0,13.188Zm2.189,0a10.635,10.635,0,0,0,2.769,7.253A15.094,15.094,0,0,1,8.968,15.72,13.112,13.112,0,0,1,14.322,12.9q-.4-.923-.765-1.662a32.048,32.048,0,0,1-9.812,1.451q-1.029,0-1.53-.026,0,.106-.013.264t-.013.264Zm.343-2.717q.58.053,1.714.053a28.947,28.947,0,0,0,8.361-1.187A26.708,26.708,0,0,0,8.2,3.4,10.707,10.707,0,0,0,4.629,6.33a11.26,11.26,0,0,0-2.1,4.141Zm3.93,11.394a10.778,10.778,0,0,0,10.6,1.583,38.731,38.731,0,0,0-2.057-8.73,11.249,11.249,0,0,0-4.893,2.664A14.962,14.962,0,0,0,6.462,21.866ZM10.5,2.558a28.029,28.029,0,0,1,4.3,5.987A13.136,13.136,0,0,0,20.2,4.721a10.692,10.692,0,0,0-7.016-2.532,10.124,10.124,0,0,0-2.69.369Zm5.249,7.86q.4.844.9,2.136,1.952-.185,4.247-.185,1.635,0,3.244.079a10.589,10.589,0,0,0-2.585-6.383,13.051,13.051,0,0,1-5.8,4.352ZM17.3,14.4a37.858,37.858,0,0,1,1.82,8.018,11,11,0,0,0,3.4-3.455A10.654,10.654,0,0,0,24.108,14.4q-1.925-.132-3.508-.132Q19.149,14.269,17.3,14.4Z" transform="translate(14.458 14.627)" fill="#e4e4e4"/>
</svg>
