<svg id="Component_2_1" data-name="Component 2 – 1" xmlns="http://www.w3.org/2000/svg" width="55" height="56" viewBox="0 0 55 56">
  <ellipse id="Ellipse_1" data-name="Ellipse 1" cx="27.5" cy="28" rx="27.5" ry="28" fill="#2759ff"/>
  <path id="Icon_awesome-behance" data-name="Icon awesome-behance" d="M10.624,12.711A3.475,3.475,0,0,0,12.84,9.322c0-3.233-2.409-4.02-5.188-4.02H0V21.53H7.867c2.949,0,5.719-1.415,5.719-4.712a3.91,3.91,0,0,0-2.963-4.107ZM3.567,8.072H6.915c1.287,0,2.445.362,2.445,1.855,0,1.378-.9,1.932-2.175,1.932H3.567Zm3.814,10.7H3.567V14.3H7.455c1.571,0,2.564.655,2.564,2.317,0,1.639-1.186,2.152-2.638,2.152ZM23.8,7.751h-6.58v-1.6H23.8Zm2.578,8.073c0-3.476-2.033-6.374-5.719-6.374a5.905,5.905,0,0,0-6.012,6.218c0,3.659,2.3,6.168,6.012,6.168a5.239,5.239,0,0,0,5.5-3.952H23.308a2.674,2.674,0,0,1-2.551,1.534,2.657,2.657,0,0,1-2.885-2.99h8.476C26.362,16.237,26.376,16.031,26.376,15.824Zm-8.5-1.429a2.522,2.522,0,0,1,2.679-2.509A2.406,2.406,0,0,1,23.129,14.4Z" transform="translate(15.447 14.882)" fill="#fff"/>
</svg>
