<?xml version="1.0" encoding="utf-8"?>
<!-- Generator: Adobe Illustrator 25.1.0, SVG Export Plug-In . SVG Version: 6.00 Build 0)  -->
<svg version="1.1" id="Layer_1" xmlns="http://www.w3.org/2000/svg" xmlns:xlink="http://www.w3.org/1999/xlink" x="0px" y="0px"
	 viewBox="0 0 74.45 70.68" style="enable-background:new 0 0 74.45 70.68;" xml:space="preserve">
<path d="M67,17.09c-2.67-2.67-6.25-3.89-9.75-3.65c0.02-0.29,0.03-0.58,0.03-0.87c0-3.36-1.31-6.52-3.68-8.89
	c-4.9-4.9-12.88-4.9-17.79,0L16.76,22.72l-6.19,6.19h8.76L40.18,8.06c2.49-2.49,6.54-2.49,9.03,0c1.21,1.21,1.87,2.81,1.87,4.51
	c0,1.71-0.66,3.31-1.87,4.52l-6.03,6.03c0,0,0,0,0,0L33.01,33.29H6.19L0,39.48h31.2v31.2l6.19-6.19V37.67l4.38-4.38l0,0l2.68-2.68
	l1.12-1.12l0,0l8.02-8.02c2.49-2.49,6.54-2.49,9.03,0c1.21,1.21,1.87,2.81,1.87,4.51c0,1.71-0.66,3.31-1.87,4.52L41.77,51.35v8.76
	l6.19-6.19L67,34.87c2.38-2.38,3.68-5.53,3.68-8.89C70.68,22.62,69.38,19.46,67,17.09z"/>
<g>
	<g>
		<path d="M0.23,46.18v-2.96h1.33c0.32,0,0.56,0.07,0.72,0.22c0.16,0.14,0.24,0.33,0.24,0.56c0,0.29-0.15,0.49-0.46,0.59v0.01
			c0.17,0.05,0.3,0.14,0.4,0.27c0.1,0.13,0.15,0.28,0.15,0.46c0,0.26-0.09,0.47-0.26,0.62c-0.18,0.16-0.43,0.24-0.75,0.24H0.23z
			 M0.83,44.42h0.65c0.13,0,0.24-0.03,0.32-0.09s0.12-0.15,0.12-0.26c0-0.11-0.04-0.2-0.11-0.26c-0.08-0.06-0.18-0.09-0.31-0.09
			H0.83V44.42z M0.83,44.86v0.83h0.69c0.14,0,0.26-0.04,0.34-0.11c0.08-0.07,0.12-0.17,0.12-0.29c0-0.14-0.04-0.24-0.13-0.31
			c-0.09-0.07-0.2-0.11-0.35-0.11H0.83z"/>
		<path d="M4.28,46.18c-0.03-0.04-0.05-0.11-0.07-0.24H4.2c-0.06,0.09-0.14,0.16-0.23,0.21c-0.09,0.05-0.23,0.07-0.39,0.07
			c-0.22,0-0.4-0.06-0.54-0.17s-0.2-0.27-0.2-0.48c0-0.22,0.07-0.37,0.22-0.47c0.15-0.1,0.36-0.17,0.63-0.21
			c0.2-0.03,0.33-0.06,0.41-0.08c0.07-0.03,0.11-0.08,0.11-0.16c0-0.08-0.03-0.14-0.09-0.18c-0.06-0.05-0.15-0.07-0.27-0.07
			c-0.26,0-0.39,0.1-0.41,0.3h-0.5c0.01-0.2,0.09-0.37,0.24-0.5c0.15-0.13,0.38-0.2,0.67-0.2c0.6,0,0.9,0.26,0.9,0.78v1.08
			c0,0.16,0.02,0.26,0.07,0.29v0.02H4.28z M3.71,45.84c0.15,0,0.28-0.04,0.37-0.12c0.09-0.08,0.13-0.18,0.13-0.29v-0.32
			c-0.06,0.04-0.19,0.08-0.39,0.12c-0.16,0.04-0.27,0.08-0.34,0.12c-0.07,0.05-0.1,0.12-0.1,0.21C3.38,45.75,3.49,45.84,3.71,45.84z
			"/>
		<path d="M6.01,46.25c-0.3,0-0.54-0.07-0.71-0.2c-0.17-0.13-0.27-0.32-0.28-0.55h0.52c0.04,0.23,0.19,0.35,0.46,0.35
			c0.12,0,0.22-0.02,0.29-0.07c0.07-0.04,0.1-0.1,0.1-0.18c0-0.03,0-0.05-0.01-0.07s-0.03-0.04-0.05-0.06s-0.04-0.03-0.06-0.04
			c-0.02-0.01-0.05-0.02-0.09-0.03c-0.04-0.01-0.08-0.02-0.1-0.02C6.04,45.36,6,45.36,5.95,45.35c-0.06-0.01-0.1-0.02-0.12-0.02
			c-0.12-0.02-0.21-0.04-0.28-0.07s-0.15-0.06-0.23-0.1c-0.08-0.05-0.14-0.11-0.18-0.19s-0.06-0.17-0.06-0.28
			c0-0.22,0.08-0.39,0.24-0.51C5.48,44.06,5.69,44,5.94,44c0.27,0,0.49,0.06,0.64,0.19c0.16,0.13,0.25,0.3,0.27,0.52H6.34
			C6.32,44.5,6.18,44.4,5.93,44.4c-0.11,0-0.2,0.02-0.27,0.06s-0.1,0.1-0.1,0.17c0,0.02,0,0.05,0.01,0.07s0.03,0.04,0.05,0.05
			s0.05,0.03,0.07,0.04s0.05,0.02,0.1,0.03s0.08,0.02,0.11,0.02c0.03,0.01,0.07,0.02,0.12,0.02c0.05,0.01,0.09,0.02,0.12,0.02
			c0.09,0.02,0.16,0.04,0.22,0.05s0.12,0.04,0.2,0.07c0.07,0.03,0.13,0.07,0.18,0.12c0.04,0.04,0.08,0.1,0.11,0.17
			s0.05,0.16,0.05,0.25c0,0.21-0.08,0.38-0.25,0.5C6.49,46.19,6.27,46.25,6.01,46.25z"/>
		<path d="M7.19,43.73v-0.51h0.56v0.51H7.19z M7.19,46.18v-2.12h0.56v2.12H7.19z"/>
		<path d="M8.04,44.43v-0.37h0.29V43.4h0.55v0.66h0.36v0.37H8.88v1.13c0,0.14,0.07,0.21,0.21,0.21l0.17,0v0.41
			c-0.09,0.01-0.2,0.01-0.35,0.01c-0.16,0-0.3-0.04-0.41-0.12s-0.17-0.21-0.17-0.39v-1.25H8.04z"/>
	</g>
</g>
<g>
	<g>
		<path d="M10.55,46.18l1.03-2.96h0.62l1.04,2.96h-0.62l-0.2-0.63h-1.07l-0.19,0.63H10.55z M11.76,44.24l-0.27,0.85h0.78l-0.27-0.85
			l-0.12-0.46h-0.01C11.83,43.99,11.79,44.14,11.76,44.24z"/>
		<path d="M13.52,46.18v-0.6h0.6v0.6H13.52z"/>
		<path d="M15.28,46.18v-2.96h0.6v1.18l1.14-1.18h0.75l-1.16,1.18l1.23,1.78h-0.7l-0.95-1.38l-0.3,0.31v1.08H15.28z"/>
		<path d="M18.63,43.22v1.11h0.01c0.08-0.12,0.17-0.2,0.26-0.25S19.12,44,19.26,44c0.22,0,0.4,0.07,0.53,0.22
			c0.14,0.15,0.2,0.34,0.2,0.57v1.39h-0.56v-1.3c0-0.12-0.03-0.21-0.1-0.28c-0.06-0.07-0.16-0.11-0.27-0.11
			c-0.12,0-0.23,0.05-0.31,0.14c-0.08,0.09-0.12,0.21-0.12,0.35v1.21h-0.56v-2.96H18.63z"/>
		<path d="M21.72,46.18c-0.03-0.04-0.05-0.11-0.07-0.24h-0.01c-0.06,0.09-0.14,0.16-0.23,0.21c-0.09,0.05-0.23,0.07-0.39,0.07
			c-0.22,0-0.4-0.06-0.54-0.17s-0.2-0.27-0.2-0.48c0-0.22,0.07-0.37,0.22-0.47c0.15-0.1,0.36-0.17,0.63-0.21
			c0.2-0.03,0.33-0.06,0.41-0.08c0.07-0.03,0.11-0.08,0.11-0.16c0-0.08-0.03-0.14-0.09-0.18c-0.06-0.05-0.15-0.07-0.27-0.07
			c-0.26,0-0.39,0.1-0.41,0.3h-0.5c0.01-0.2,0.09-0.37,0.24-0.5c0.15-0.13,0.38-0.2,0.67-0.2c0.6,0,0.9,0.26,0.9,0.78v1.08
			c0,0.16,0.02,0.26,0.07,0.29v0.02H21.72z M21.16,45.84c0.15,0,0.28-0.04,0.37-0.12s0.13-0.18,0.13-0.29v-0.32
			c-0.06,0.04-0.19,0.08-0.39,0.12c-0.16,0.04-0.27,0.08-0.34,0.12c-0.07,0.05-0.1,0.12-0.1,0.21
			C20.82,45.75,20.93,45.84,21.16,45.84z"/>
		<path d="M23.14,44.06v0.29h0.01C23.29,44.12,23.5,44,23.78,44c0.22,0,0.4,0.07,0.53,0.22c0.14,0.15,0.2,0.34,0.2,0.57v1.39h-0.56
			v-1.3c0-0.12-0.03-0.21-0.1-0.28c-0.06-0.07-0.16-0.11-0.27-0.11c-0.12,0-0.23,0.05-0.31,0.14c-0.08,0.09-0.12,0.21-0.12,0.35
			v1.21h-0.56v-2.12H23.14z"/>
	</g>
</g>
</svg>
